<?xml version="1.0" encoding="utf-8"?>
<!-- Generator: Adobe Illustrator 16.0.0, SVG Export Plug-In . SVG Version: 6.00 Build 0)  -->
<!DOCTYPE svg PUBLIC "-//W3C//DTD SVG 1.1//EN" "http://www.w3.org/Graphics/SVG/1.1/DTD/svg11.dtd">
<svg version="1.1" id="Layer_1" xmlns="http://www.w3.org/2000/svg" xmlns:xlink="http://www.w3.org/1999/xlink" x="0px" y="0px"
	 width="42px" height="42px" viewBox="0 0 42 42" enable-background="new 0 0 42 42" xml:space="preserve">
<path id="Rectangle_304" fill="#FF7977" d="M21,0L21,0c11.598,0,21,9.402,21,21l0,0c0,11.598-9.402,21-21,21l0,0
	C9.402,42,0,32.598,0,21l0,0C0,9.402,9.402,0,21,0z"/>
<path fill="#FFFFFF" d="M30.957,25.452c-0.18-0.458-0.39-0.903-0.592-1.354c-1.625-3.538-3.328-7.037-5.109-10.496
	c-0.252-0.484-0.497-0.97-0.762-1.446c-0.259-0.465-0.562-0.912-0.955-1.275c-0.625-0.596-1.465-0.951-2.326-1.005h-0.396
	c-0.886,0.043-1.752,0.416-2.388,1.036c-0.378,0.357-0.67,0.794-0.923,1.246c-0.261,0.468-0.503,0.947-0.749,1.422
	c-1.195,2.321-2.356,4.661-3.481,7.017c-0.671,1.411-1.335,2.824-1.976,4.246c-0.264,0.595-0.505,1.206-0.594,1.856
	c-0.167,1.093,0.071,2.239,0.656,3.179c0.503,0.814,1.259,1.476,2.141,1.853c0.688,0.297,1.437,0.43,2.186,0.389
	c1-0.054,1.965-0.414,2.812-0.939c0.943-0.577,1.75-1.348,2.501-2.157c0.701,0.755,1.448,1.474,2.312,2.038
	c0.833,0.548,1.784,0.945,2.785,1.038c1.086,0.116,2.21-0.153,3.122-0.759c0.807-0.535,1.433-1.3,1.792-2.2
	c0.231-0.579,0.345-1.199,0.335-1.822C31.339,26.677,31.19,26.045,30.957,25.452z M21.007,26.895
	c-0.273-0.32-0.513-0.67-0.755-1.014c-0.406-0.595-0.775-1.217-1.072-1.878c-0.243-0.542-0.438-1.116-0.516-1.712
	c-0.055-0.472-0.042-0.964,0.132-1.415c0.155-0.419,0.452-0.782,0.831-1.023c0.9-0.582,2.181-0.519,2.998,0.186
	c0.412,0.352,0.658,0.873,0.72,1.405c0.082,0.713-0.08,1.425-0.326,2.086C22.548,24.759,21.808,25.861,21.007,26.895z
	 M29.833,28.399c-0.239,0.831-0.818,1.555-1.575,1.974c-0.668,0.375-1.469,0.502-2.224,0.379c-0.963-0.15-1.826-0.663-2.574-1.264
	c-0.55-0.442-1.045-0.948-1.521-1.468c0.75-0.948,1.456-1.938,1.994-3.022c0.469-0.946,0.828-1.976,0.86-3.041
	c0.021-0.68-0.107-1.368-0.424-1.97c-0.413-0.805-1.155-1.424-2.005-1.723c-0.795-0.284-1.676-0.309-2.486-0.078
	c-0.765,0.217-1.463,0.675-1.94,1.313c-0.422,0.554-0.662,1.236-0.717,1.928c-0.085,0.999,0.165,1.994,0.543,2.91
	c0.561,1.338,1.386,2.547,2.296,3.674c-0.411,0.472-0.856,0.914-1.332,1.324c-0.74,0.624-1.585,1.17-2.544,1.378
	c-0.774,0.174-1.61,0.086-2.321-0.273c-0.832-0.415-1.47-1.194-1.712-2.093c-0.184-0.661-0.143-1.372,0.076-2.019
	c0.183-0.535,0.43-1.045,0.66-1.557c1.607-3.5,3.291-6.963,5.053-10.387c0.262-0.51,0.521-1.021,0.798-1.523
	c0.228-0.403,0.491-0.799,0.865-1.083c0.403-0.314,0.902-0.481,1.412-0.471c0.525-0.006,1.048,0.188,1.451,0.525
	c0.397,0.33,0.665,0.781,0.905,1.23c0.546,1.022,1.068,2.057,1.592,3.09c1.49,2.955,2.926,5.939,4.3,8.948
	c0.208,0.468,0.431,0.935,0.57,1.429C30.005,27.136,30.011,27.793,29.833,28.399z"/>
</svg>
