<svg xmlns="http://www.w3.org/2000/svg" xmlns:xlink="http://www.w3.org/1999/xlink" width="38" height="32" viewBox="0 0 38 32">
                                    <defs>
                                        <clipPath id="clip-Artboard_8">
                                            <rect width="38" height="32" />
                                        </clipPath>
                                    </defs>
                                    <g id="Artboard_8" data-name="Artboard – 8" clip-path="url(#clip-Artboard_8)">
                                        <g id="noun_toggles_401746" transform="translate(-5.835 -9.938)">
                                            <g id="Group_716" data-name="Group 716" transform="translate(6 10)">
                                                <path id="Path_684" data-name="Path 684" d="M36.426,10H13.244a7.244,7.244,0,1,0,0,14.489H36.426a7.244,7.244,0,1,0,0-14.489ZM34.977,20.142a2.9,2.9,0,1,1,2.9-2.9A2.9,2.9,0,0,1,34.977,20.142Z" transform="translate(-6 -10)" fill="#4179fc" />
                                                <path id="Path_685" data-name="Path 685" d="M36.426,34H13.244a7.244,7.244,0,0,0,0,14.489H36.426a7.244,7.244,0,1,0,0-14.489ZM14.693,44.142a2.9,2.9,0,1,1,2.9-2.9A2.9,2.9,0,0,1,14.693,44.142Z" transform="translate(-6 -16.614)" fill="#e2e8fc" />
                                                <circle id="Ellipse_163" data-name="Ellipse 163" cx="3.5" cy="3.5" r="3.5" transform="translate(25.835 3.938)" fill="#28e9fe" />
                                                <circle id="Ellipse_164" data-name="Ellipse 164" cx="3.5" cy="3.5" r="3.5" transform="translate(4.835 20.938)" fill="#becefc" />
                                            </g>
                                        </g>
                                    </g>
                                </svg>