<svg width="100" height="48" viewBox="0 0 100 48" fill="none" xmlns="http://www.w3.org/2000/svg">
<g id="ribbons">
<path id="Shape" fill-rule="evenodd" clip-rule="evenodd" d="M99.8167 13.5376L96.2881 23.0499L99.8167 32.5623C100.15 33.461 100.023 34.4673 99.4749 35.2539C98.9271 36.0413 98.0291 36.5112 97.0701 36.5112H85.1682V43.1702C85.1682 44.7884 83.856 46.0999 82.2385 46.0999H17.761C16.1436 46.0999 14.8313 44.7884 14.8313 43.1702V36.5112H2.92946C1.97044 36.5112 1.07246 36.0413 0.524674 35.2539C-0.0231163 34.4673 -0.150527 33.4618 0.182877 32.5623L3.71147 23.0499L0.182877 13.5376C-0.150527 12.6381 -0.0231163 11.6325 0.524674 10.8452C1.0717 10.0578 1.97044 9.58862 2.92946 9.58862H14.8313V2.92969C14.8313 1.31149 16.1436 0 17.761 0H82.2385C83.856 0 85.1682 1.31149 85.1682 2.92969V9.58862H97.0701C98.0291 9.58862 98.9271 10.0578 99.4749 10.8452C100.023 11.6325 100.151 12.6381 99.8167 13.5376ZM20.6907 5.85938V40.2405H79.3089V5.85938H20.6907ZM9.58305 22.0306L7.14089 15.448H14.8321V30.6519H7.14089L9.58305 24.0685C9.82643 23.4108 9.82643 22.6883 9.58305 22.0306ZM92.8587 15.448H85.1682V30.6519H92.8587L90.4165 24.0685C90.1731 23.4108 90.1731 22.6883 90.4165 22.0306L92.8587 15.448Z" fill="#323232"/>
<path id="Shape_2" fill-rule="evenodd" clip-rule="evenodd" d="M71.6372 24.7681H28.3633C26.7451 24.7681 25.4336 23.4558 25.4336 21.8384V12.5176C25.4336 10.9001 26.7451 9.58789 28.3633 9.58789H71.6372C73.2554 9.58789 74.5669 10.9001 74.5669 12.5176V21.8384C74.5669 23.4558 73.2554 24.7681 71.6372 24.7681ZM68.7075 18.908V15.4473H31.293V18.908H68.7075Z" fill="#323232"/>
<path id="Path" fill-rule="evenodd" clip-rule="evenodd" d="M37.29 34.5566H62.7097C64.3271 34.5566 65.6393 33.2451 65.6393 31.627C65.6393 30.0095 64.3271 28.6973 62.7097 28.6973H37.29C35.6718 28.6973 34.3604 30.0095 34.3604 31.627C34.3604 33.2451 35.6718 34.5566 37.29 34.5566Z" fill="#323232"/>
</g>
</svg>
