<svg xmlns="http://www.w3.org/2000/svg" xmlns:xlink="http://www.w3.org/1999/xlink" width="44" height="44" viewBox="0 0 44 44">
                                    <defs>
                                        <clipPath id="clip-Artboard_13">
                                            <rect width="44" height="44" />
                                        </clipPath>
                                    </defs>
                                    <g id="Artboard_13" data-name="Artboard – 13" clip-path="url(#clip-Artboard_13)">
                                        <g id="Group_769" data-name="Group 769" transform="translate(-1913 -2090)">
                                            <path id="Path_711" data-name="Path 711" d="M1916.358,2090.721l-2.394,1.57v10.8l1.631,1.551h10.576l3.547,2.894.317-2.894,2.063-1.039v-11.31l-1.747-1.57Z" transform="translate(-0.233 -0.174)" fill="#4179fc" />
                                            <path id="Path_710" data-name="Path 710" d="M1948.349,2105.969v2.768l-2.271,1.476v10.781l1.568,1.8.7.506-.255,2.451,4-2.957h10.516l1.72-2.115v-10.166l-2.4-1.775h-10.155Z" transform="translate(-7.984 -3.854)" fill="#28e9fe" />
                                            <path id="Path_709" data-name="Path 709" d="M1929.47,2125.417l-3.511,2.935h-10.693l-1.179,1.116-.381,10.751,1.916,1.618,15.294-.294,1.254-1.323v-10.751l-2.1-1.489Z" transform="translate(-0.17 -8.549)" fill="#e2e8fc" />
                                            <g id="noun_Foreign_Language_2298122" data-name="noun_Foreign Language_2298122" transform="translate(1913 2090)">
                                                <g id="_12_Speaking_Many_Languanges" data-name="12 Speaking Many Languanges" transform="translate(0 0)">
                                                    <path id="Path_703" data-name="Path 703" d="M18.345,8.517H15.31V7.759a.759.759,0,1,0-1.517,0v.759H10.759a.759.759,0,1,0,0,1.517h5.075a7.9,7.9,0,0,1-1.206,2.224,9.359,9.359,0,0,1-.966-1.129.759.759,0,1,0-1.262.843,10.463,10.463,0,0,0,1.169,1.378,7.007,7.007,0,0,1-2.295,1.274.76.76,0,1,0,.479,1.441,8.5,8.5,0,0,0,2.953-1.68,13.883,13.883,0,0,0,2.541,1.641.759.759,0,1,0,.678-1.358,12.256,12.256,0,0,1-2.16-1.391,9.51,9.51,0,0,0,1.658-3.244h.921a.759.759,0,1,0,0-1.517Z" transform="translate(-4.69 -3.966)" fill="#fff" />
                                                    <path id="Path_704" data-name="Path 704" d="M19.69,3H6.034A3.034,3.034,0,0,0,3,6.034v9.1a3.034,3.034,0,0,0,3.034,3.034h9.6l3.585,2.868a.759.759,0,0,0,1.233-.592V18.076a3.039,3.039,0,0,0,2.276-2.938v-9.1A3.034,3.034,0,0,0,19.69,3Zm1.517,12.138a1.517,1.517,0,0,1-1.517,1.517.759.759,0,0,0-.759.759V18.87l-2.56-2.048a.759.759,0,0,0-.474-.166H6.034a1.517,1.517,0,0,1-1.517-1.517v-9.1A1.517,1.517,0,0,1,6.034,4.517H19.69a1.517,1.517,0,0,1,1.517,1.517Z" transform="translate(-3 -3)" fill="#4179fc" />
                                                    <path id="Path_705" data-name="Path 705" d="M20.448,40.131V37.759a.759.759,0,0,0-1.233-.592L15.63,40.034h-9.6A3.034,3.034,0,0,0,3,43.069v9.1a3.034,3.034,0,0,0,3.034,3.034H19.69a3.034,3.034,0,0,0,3.034-3.034v-9.1A3.039,3.039,0,0,0,20.448,40.131Zm.759,12.042A1.517,1.517,0,0,1,19.69,53.69H6.034a1.517,1.517,0,0,1-1.517-1.517v-9.1a1.517,1.517,0,0,1,1.517-1.517H15.9a.759.759,0,0,0,.474-.166l2.56-2.048v1.456a.759.759,0,0,0,.759.759,1.517,1.517,0,0,1,1.517,1.517Z" transform="translate(-3 -11.207)" fill="#e2e8fc" />
                                                    <path id="Path_706" data-name="Path 706" d="M51.69,21.034h-9.6l-3.585-2.868a.759.759,0,0,0-1.233.592v2.372A3.039,3.039,0,0,0,35,24.069v9.1a3.039,3.039,0,0,0,2.276,2.938v2.372a.759.759,0,0,0,1.233.592l3.585-2.868h9.6a3.034,3.034,0,0,0,3.034-3.034v-9.1A3.034,3.034,0,0,0,51.69,21.034Zm1.517,12.138A1.517,1.517,0,0,1,51.69,34.69H41.828a.759.759,0,0,0-.474.166L38.793,36.9V35.448a.759.759,0,0,0-.759-.759,1.517,1.517,0,0,1-1.517-1.517v-9.1a1.517,1.517,0,0,1,1.517-1.517.759.759,0,0,0,.759-.759V20.337l2.56,2.048a.759.759,0,0,0,.474.166H51.69a1.517,1.517,0,0,1,1.517,1.517Z" transform="translate(-10.724 -6.621)" fill="#28e9fe" />
                                                    <path id="Path_707" data-name="Path 707" d="M47.236,26.43a.79.79,0,0,0-1.358,0l-3.793,7.586a.759.759,0,1,0,1.358.678l3.11-6.229,1.428,2.855H46.553a.759.759,0,1,0,0,1.517h2.186l.928,1.856a.759.759,0,1,0,1.358-.678Z" transform="translate(-12.415 -8.562)" fill="#fff" />
                                                    <path id="Path_708" data-name="Path 708" d="M17.826,52.6H14.033a1.517,1.517,0,1,1,0-3.034h3.034a.759.759,0,0,0,0-1.517H15.55a.759.759,0,1,1,.683-1.1.759.759,0,1,0,1.356-.683A2.276,2.276,0,0,0,13.436,48.1a3.034,3.034,0,0,0,.6,6.011h3.793a.759.759,0,0,0,0-1.517Z" transform="translate(-4.93 -13.149)" fill="#becefc" />
                                                </g>
                                            </g>
                                        </g>
                                    </g>
                                </svg>