 <svg xmlns="http://www.w3.org/2000/svg" xmlns:xlink="http://www.w3.org/1999/xlink" width="43" height="44" viewBox="0 0 43 44">
                                        <defs>
                                            <clipPath id="clip-Artboard_10">
                                                <rect width="43" height="44" />
                                            </clipPath>
                                        </defs>
                                        <g id="Artboard_10" data-name="Artboard – 10" clip-path="url(#clip-Artboard_10)">
                                            <g id="noun_Puzzle_3673795" transform="translate(-10.81 -10)">
                                                <path id="Path_692" data-name="Path 692" d="M70.25,34.157a1.826,1.826,0,0,0-1.54.269.974.974,0,0,1-1.017.093.958.958,0,0,1-.511-.852V29.439H62.893a1.045,1.045,0,0,1-.9-.594.991.991,0,0,1,.137-.946,1.805,1.805,0,0,0,.324-1.039,1.769,1.769,0,0,0-.726-1.424,1.8,1.8,0,0,0-1.611-.247A1.73,1.73,0,0,0,59,26.382a1.776,1.776,0,0,0,.269,1.518.927.927,0,0,1,.137.885.968.968,0,0,1-.654.583.743.743,0,0,1-.154.022H54.243V33.64a.963.963,0,0,1-.528.852A.949.949,0,0,1,52.7,34.41a1.793,1.793,0,0,0-2.464.385,1.77,1.77,0,0,0-.247,1.611,1.8,1.8,0,0,0,1.182,1.122,1.86,1.86,0,0,0,1.529-.291,1,1,0,0,1,1.017-.082.953.953,0,0,1,.528.852v4.322h3.9a3.015,3.015,0,0,1-.258-2.172,2.936,2.936,0,0,1,.957-1.446,3.159,3.159,0,0,1,.935-.561,3.317,3.317,0,0,1,.946-.143,3.04,3.04,0,0,1,1.1.22c.011,0,.011,0,.022.011a2.7,2.7,0,0,1,.583.313,3.016,3.016,0,0,1,1.133,1.694,3.176,3.176,0,0,1,.082.687,2.919,2.919,0,0,1-.093.726c-.022.071-.06.137-.082.22-.06.154-.1.3-.176.445H67.16v-4.3a.947.947,0,0,1,.528-.863.976.976,0,0,1,1.006.082,1.757,1.757,0,0,0,2.711-1.985A1.7,1.7,0,0,0,70.25,34.157Z" transform="translate(-17.593 -6.797)" fill="#e2e8fc" />
                                                <path id="Path_693" data-name="Path 693" d="M73.729,59.811a1.843,1.843,0,0,0-1.518.269.944.944,0,0,1-.885.143.983.983,0,0,1-.594-.654.726.726,0,0,1-.011-.154V55.055H66.47a.947.947,0,0,1-.863-.528c-.022-.049-.033-.1-.049-.154a.011.011,0,0,1-.011-.011,1.028,1.028,0,0,1,.137-.852,1.683,1.683,0,0,0,.352-1.039,2.168,2.168,0,0,0-.049-.418,1.837,1.837,0,0,0-.676-1.006A1.747,1.747,0,0,0,63,51.255a1.61,1.61,0,0,0-.407.726,1.855,1.855,0,0,0,.269,1.529c.022.022.022.044.033.071a1.206,1.206,0,0,1,.1.231.709.709,0,0,1,.033.137.718.718,0,0,1-.011.341V54.3a.04.04,0,0,1-.011.033,1.136,1.136,0,0,1-.06.2c-.033.049-.071.093-.1.143a.967.967,0,0,1-.748.374H57.771v3.866a3.062,3.062,0,0,1,2.139-.247,2.894,2.894,0,0,1,1.248.715,2.843,2.843,0,0,1,.781,1.2,2.916,2.916,0,0,1-.407,2.662,3.036,3.036,0,0,1-3.772.852l.011,3.866h4.3a.964.964,0,0,1,.77,1.534,1.761,1.761,0,0,0-.352,1.05,1.733,1.733,0,0,0,.726,1.413,1.765,1.765,0,0,0,1.622.247,1.728,1.728,0,0,0,1.1-1.166,1.771,1.771,0,0,0-.269-1.54.949.949,0,0,1-.082-1.017.934.934,0,0,1,.852-.511h4.229V63.688a.471.471,0,0,1,.022-.165l-.011-.006a.983.983,0,0,1,.583-.726,1,1,0,0,1,.946.137,1.849,1.849,0,0,0,2.453-.4,1.748,1.748,0,0,0,.247-1.611A1.717,1.717,0,0,0,73.729,59.811Z" transform="translate(-21.132 -18.324)" fill="#28e9fe" />
                                                <path id="Path_694" data-name="Path 694" d="M45.428,66.064a1.744,1.744,0,0,0,.231-1.611,1.556,1.556,0,0,0-.445-.7,1.775,1.775,0,0,0-.687-.385A1.84,1.84,0,0,0,43,63.639a1,1,0,0,1-.808.176c-.049-.011-.082-.049-.115-.06a1.012,1.012,0,0,1-.137-.049.267.267,0,0,1-.093-.082c-.011,0-.022,0-.022-.011a.931.931,0,0,1-.4-.759V58.53H37.51a2.977,2.977,0,0,1,.247,2.172,2.911,2.911,0,0,1-4.531,1.589,2.959,2.959,0,0,1-.863-3.761H28.508v4.3a.943.943,0,0,1-.528.852.93.93,0,0,1-1.006-.082,1.763,1.763,0,0,0-2.711,2,1.685,1.685,0,0,0,1.166,1.1,1.736,1.736,0,0,0,1.54-.269.949.949,0,0,1,1.017-.082.963.963,0,0,1,.517.852v4.229h4.289a.456.456,0,0,1,.165.022.9.9,0,0,1,.726.572.964.964,0,0,1-.126.946A1.756,1.756,0,0,0,33.231,74a1.77,1.77,0,0,0,2.337,1.661,1.714,1.714,0,0,0,1.111-1.182,1.807,1.807,0,0,0-.28-1.518.957.957,0,0,1-.126-.885.923.923,0,0,1,.654-.583.35.35,0,0,1,.154-.022h4.361V67.224a.947.947,0,0,1,.528-.863.975.975,0,0,1,1.006.082A1.79,1.79,0,0,0,45.428,66.064Z" transform="translate(-6.012 -21.843)" fill="#e2e8fc" />
                                                <path id="Path_695" data-name="Path 695" d="M22.919,25.282a.939.939,0,0,1,.979-.231.964.964,0,0,1,.654.77A1.76,1.76,0,1,0,27.835,24.7a1.817,1.817,0,0,0-1.287-.874.989.989,0,0,1-.781-.665A.966.966,0,0,1,26,22.191l3.063-3.052L26.29,16.368a2.948,2.948,0,0,1-1.369,1.716,2.919,2.919,0,0,1-3.492-4.614,2.972,2.972,0,0,1,1.226-.748L19.927,10l-3.035,3.035a.944.944,0,0,1-.979.231.962.962,0,0,1-.654-.77,1.837,1.837,0,0,0-.489-1,1.76,1.76,0,0,0-1.518-.489,1.812,1.812,0,0,0-1.32.968,1.692,1.692,0,0,0,.049,1.611,1.821,1.821,0,0,0,1.287.9.989.989,0,0,1,.781.665.954.954,0,0,1-.247.957L10.81,19.106l3.035,3.035a1.281,1.281,0,0,1,.1.126.973.973,0,0,1,.1.924.955.955,0,0,1-.77.572,1.781,1.781,0,0,0-.957.5,1.77,1.77,0,0,0,.467,2.826,1.7,1.7,0,0,0,1.622-.044,1.807,1.807,0,0,0,.874-1.276.971.971,0,0,1,.539-.715.91.91,0,0,1,.4-.093,1.071,1.071,0,0,1,.478.126,1.26,1.26,0,0,1,.126.093l3.085,3.085Z" fill="#4179fc" />
                                            </g>
                                        </g>
                                    </svg>