<?xml version="1.0" encoding="utf-8"?>
<!-- Generator: Adobe Illustrator 19.0.0, SVG Export Plug-In . SVG Version: 6.00 Build 0)  -->
<svg version="1.1" id="Layer_1" xmlns="http://www.w3.org/2000/svg" xmlns:xlink="http://www.w3.org/1999/xlink" x="0px" y="0px"
	 viewBox="0 0 26 24" style="enable-background:new 0 0 26 24;" xml:space="preserve">
<style type="text/css">
	.st0{fill:none;stroke:#323232;stroke-width:0.75;stroke-miterlimit:10;}
	.st1{fill:#323232;}
</style>
<path id="XMLID_2_" class="st0" d="M15.8,21.6H3.9c-1.4,0-2.6-1.2-2.6-2.6V4.1c0-1.4,1.2-2.6,2.6-2.6h16.4c1.4,0,2.6,1.2,2.6,2.6
	v10.4"/>
<polygon id="XMLID_5_" class="st1" points="16.6,14.9 19.8,22.9 20.7,20.6 24.1,23.7 25.3,22.6 21.8,19.3 24.7,18.5 "/>
<g id="XMLID_6_">
	<g id="XMLID_7_">
		<path id="XMLID_14_" d="M16.3,6.5H8.5v0.1L8.4,6.2C8.3,5.8,7.9,5.5,7.4,5.5H6.8c-0.1,0-0.3,0.1-0.3,0.3s0.1,0.3,0.3,0.3h0.7
			c0.2,0,0.4,0.2,0.5,0.4l1.5,5.1l-0.7,0.9c-0.1,0.1-0.2,0.3-0.2,0.5c0,0.5,0.4,0.7,0.7,0.7H16c0.1,0,0.3-0.1,0.3-0.3
			c0-0.1-0.1-0.3-0.3-0.3H9.2c-0.2,0-0.3-0.1-0.3-0.3c0-0.1,0-0.1,0.1-0.2l0.7-0.9h4.8c0.4,0,0.7-0.2,0.8-0.6l1.7-3.6
			c0.1-0.2,0.1-0.1,0.1-0.4V7.2C17.1,6.8,16.7,6.5,16.3,6.5z M16.6,7.3L16.6,7.3L14.9,11c-0.1,0.2-0.3,0.3-0.5,0.3H9.8L8.5,6.9h7.8
			C16.4,6.9,16.6,7.1,16.6,7.3L16.6,7.3z"/>
		<path id="XMLID_11_" d="M9.4,14.2c-0.6,0-0.9,0.5-0.9,0.9s0.5,0.9,0.9,0.9s0.9-0.5,0.9-0.9S9.9,14.2,9.4,14.2z M9.4,15.6
			c-0.3,0-0.5-0.2-0.5-0.5s0.2-0.5,0.5-0.5s0.5,0.2,0.5,0.5S9.6,15.6,9.4,15.6z"/>
		<path id="XMLID_8_" d="M15.1,14.2c-0.6,0-0.9,0.5-0.9,0.9s0.5,0.9,0.9,0.9s0.9-0.5,0.9-0.9S15.7,14.2,15.1,14.2z M15.1,15.6
			c-0.3,0-0.5-0.2-0.5-0.5s0.2-0.5,0.5-0.5s0.5,0.2,0.5,0.5S15.4,15.6,15.1,15.6z"/>
	</g>
</g>
</svg>
