<svg xmlns="http://www.w3.org/2000/svg" xmlns:xlink="http://www.w3.org/1999/xlink" width="52" height="44" viewBox="0 0 52 44">
  <defs>
    <clipPath id="clip-path">
      <rect id="Rectangle_409" data-name="Rectangle 409" width="28" height="25" rx="2" transform="translate(2442 1487)" fill="#4179fc"/>
    </clipPath>
    <clipPath id="clip-Artboard_6">
      <rect width="52" height="44"/>
    </clipPath>
  </defs>
  <g id="Artboard_6" data-name="Artboard – 6" clip-path="url(#clip-Artboard_6)">
    <g id="Group_767" data-name="Group 767" transform="translate(-2442 -1487)">
      <rect id="Rectangle_408" data-name="Rectangle 408" width="28" height="25" rx="2" transform="translate(2442 1487)" fill="#4179fc"/>
      <g id="Mask_Group_58" data-name="Mask Group 58" clip-path="url(#clip-path)">
        <g id="Group_699" data-name="Group 699">
          <path id="Path_678" data-name="Path 678" d="M2437.62,1515.039s5.889-16.775,8.764-16.434c2.885-.553,5.926,11.015,7.176,11.5,3.3,1.7,4.888-6.808,8.494-6.908,2.054-.2,4.439,7.539,6.288,9.3s8.268,7.572,8.268,7.572Z" transform="translate(0 -2.968)" fill="none" stroke="#28e9fe" stroke-width="0.7"/>
          <g id="Ellipse_159" data-name="Ellipse 159" transform="translate(2456 1490)" fill="none" stroke="#28e9fe" stroke-width="0.7">
            <circle cx="3.5" cy="3.5" r="3.5" stroke="none"/>
            <circle cx="3.5" cy="3.5" r="3.15" fill="none"/>
          </g>
          <path id="Path_679" data-name="Path 679" d="M2445,1498.868s.651-1.55,1.378-1.367c1.165-.33,2.945,4.993,2.945,4.993" fill="none" stroke="#28e9fe" stroke-linecap="round" stroke-width="0.7"/>
          <path id="Path_680" data-name="Path 680" d="M2460.528,1502.494a1.957,1.957,0,0,1,1.4-.675c.952-.071,1.8,2.367,1.8,2.367" fill="none" stroke="#28e9fe" stroke-linecap="round" stroke-width="0.7"/>
        </g>
      </g>
      <g id="Group_701" data-name="Group 701" transform="translate(12.633 2)">
        <g id="Group_700" data-name="Group 700" transform="translate(2460 1489)">
          <rect id="Rectangle_401" data-name="Rectangle 401" width="7" height="2" transform="translate(0.367 0)" fill="#becefc"/>
          <rect id="Rectangle_402" data-name="Rectangle 402" width="9" height="2" transform="translate(0.367 4)" fill="#becefc"/>
          <rect id="Rectangle_403" data-name="Rectangle 403" width="13" height="2" transform="translate(0.367 8)" fill="#becefc"/>
          <rect id="Rectangle_404" data-name="Rectangle 404" width="18" height="2" transform="translate(0.367 12)" fill="#becefc"/>
          <rect id="Rectangle_405" data-name="Rectangle 405" width="21" height="2" transform="translate(0.367 16)" fill="#becefc"/>
        </g>
      </g>
      <g id="Group_703" data-name="Group 703" transform="translate(-13.367 23)">
        <g id="Group_700-2" data-name="Group 700" transform="translate(2460 1489)">
          <rect id="Rectangle_402-2" data-name="Rectangle 402" width="9" height="2" transform="translate(13.367 4)" fill="#e2e8fc"/>
          <rect id="Rectangle_403-2" data-name="Rectangle 403" width="13" height="2" transform="translate(9.367 8)" fill="#e2e8fc"/>
          <rect id="Rectangle_404-2" data-name="Rectangle 404" width="24" height="2" transform="translate(-1.633 12)" fill="#e2e8fc"/>
          <rect id="Rectangle_405-2" data-name="Rectangle 405" width="27" height="2" transform="translate(-4.633 16)" fill="#e2e8fc"/>
        </g>
      </g>
      <rect id="Rectangle_410" data-name="Rectangle 410" width="21" height="17" rx="2" transform="translate(2473 1514)" fill="#e2e8fc"/>
    </g>
  </g>
</svg>
