<?xml version="1.0" standalone="no"?>
<!DOCTYPE svg PUBLIC "-//W3C//DTD SVG 20010904//EN"
 "http://www.w3.org/TR/2001/REC-SVG-20010904/DTD/svg10.dtd">
<svg version="1.0" xmlns="http://www.w3.org/2000/svg"
 width="192.000000pt" height="192.000000pt" viewBox="0 0 192.000000 192.000000"
 preserveAspectRatio="xMidYMid meet">

<g transform="translate(0.000000,192.000000) scale(0.100000,-0.100000)"
fill="#e26727" stroke="none">
<path d="M788 1894 c-326 -59 -605 -293 -718 -602 -203 -556 130 -1150 710
-1267 125 -25 323 -17 444 19 327 98 560 335 657 667 30 106 37 314 14 429
-67 333 -298 602 -613 714 -152 54 -336 69 -494 40z m-51 -646 c11 -16 5 -138
-8 -138 -4 0 -20 25 -34 55 l-26 55 -115 0 -114 0 0 -110 0 -110 99 0 100 0 8
42 c6 28 15 44 26 46 15 3 17 -8 17 -112 0 -117 -11 -151 -31 -99 -31 81 -26
78 -127 81 l-92 3 0 -121 0 -120 115 0 c63 0 125 5 139 11 13 6 36 33 51 60
46 86 58 77 42 -34 l-11 -77 -208 -2 c-114 -1 -229 -2 -255 -3 -37 0 -48 4
-51 17 -3 14 6 19 37 24 l41 7 0 248 0 248 -37 3 c-27 2 -39 8 -41 21 -3 16
13 17 231 17 176 0 237 -3 244 -12z m223 -165 l0 -48 56 3 56 4 -4 -29 c-3
-27 -6 -28 -58 -31 l-55 -3 1 -118 c0 -65 4 -123 9 -130 7 -12 17 -12 89 1 33
5 29 -20 -6 -42 -48 -29 -112 -27 -143 5 -24 23 -25 29 -25 155 l0 130 -25 0
c-35 0 -31 20 9 52 19 15 40 44 47 63 8 22 20 35 31 35 15 0 18 -8 18 -47z
m354 -42 c21 -18 22 -101 2 -101 -8 0 -23 16 -34 35 -33 56 -102 59 -110 6 -5
-30 13 -49 73 -76 67 -30 96 -63 102 -117 4 -37 1 -49 -21 -75 -33 -39 -84
-57 -140 -49 -64 10 -76 23 -79 85 -3 69 14 76 42 18 27 -57 70 -78 110 -56
55 31 32 83 -58 129 -65 33 -101 70 -101 107 0 38 29 83 63 99 38 17 128 14
151 -5z m249 -16 c1 -5 -13 -14 -31 -20 -18 -5 -31 -14 -29 -20 2 -5 19 -58
37 -118 18 -59 37 -104 41 -100 11 13 69 188 69 211 0 15 -9 22 -30 27 -16 4
-30 13 -30 21 0 11 18 14 85 14 68 0 85 -3 85 -15 0 -8 -11 -17 -25 -21 -32
-8 -29 -1 -115 -239 -90 -248 -110 -288 -149 -304 -50 -21 -89 15 -62 58 5 8
26 14 47 15 38 1 40 3 62 60 l23 58 -58 170 c-50 146 -62 172 -85 184 -16 8
-28 19 -28 25 0 13 189 7 193 -6z"/>
</g>
</svg>
