<svg xmlns="http://www.w3.org/2000/svg" xmlns:xlink="http://www.w3.org/1999/xlink" width="33" height="28" viewBox="0 0 33 28">
                                <defs>
                                    <clipPath id="clip-Artboard_19">
                                        <rect width="33" height="28" />
                                    </clipPath>
                                </defs>
                                <g id="Artboard_19" data-name="Artboard – 19" clip-path="url(#clip-Artboard_19)">
                                    <g id="noun_filter_2432635" transform="translate(-4 -5.198)">
                                        <path id="Path_730" data-name="Path 730" d="M29.23,21.5H19.148a4.624,4.624,0,0,1,0,4.114H29.23a2.057,2.057,0,1,0,0-4.114Z" transform="translate(5.625 5.911)" fill="#e2e8fc" />
                                        <path id="Path_731" data-name="Path 731" d="M6.057,21.5a2.057,2.057,0,1,0,0,4.114H16.138a4.636,4.636,0,0,1,0-4.114Z" transform="translate(0 5.911)" fill="#e2e8fc" />
                                        <circle id="Ellipse_186" data-name="Ellipse 186" cx="3.5" cy="3.5" r="3.5" transform="translate(9.456 5.198)" fill="#4179fc" />
                                        <path id="Path_732" data-name="Path 732" d="M6.057,10.614H8.6A4.636,4.636,0,0,1,8.6,6.5H6.057a2.057,2.057,0,1,0,0,4.114Z" transform="translate(0 0.341)" fill="#e2e8fc" />
                                        <path id="Path_733" data-name="Path 733" d="M31.272,10.614a2.057,2.057,0,0,0,0-4.114H13.649a4.636,4.636,0,0,1,0,4.114Z" transform="translate(3.583 0.341)" fill="#e2e8fc" />
                                        <circle id="Ellipse_187" data-name="Ellipse 187" cx="3.428" cy="3.428" r="3.428" transform="translate(24.57 15.754)" fill="#28e9fe" />
                                        <path id="Path_734" data-name="Path 734" d="M6.057,18.114H23.682a4.624,4.624,0,0,1,0-4.114H6.057a2.057,2.057,0,1,0,0,4.114Z" transform="translate(0 3.126)" fill="#e2e8fc" />
                                        <path id="Path_735" data-name="Path 735" d="M27.188,14h-2.54a4.624,4.624,0,0,1,0,4.114h2.54a2.057,2.057,0,0,0,0-4.114Z" transform="translate(7.668 3.126)" fill="#e2e8fc" />
                                        <circle id="Ellipse_188" data-name="Ellipse 188" cx="3.428" cy="3.428" r="3.428" transform="translate(17.028 26.039)" fill="#4179fc" />
                                    </g>
                                </g>
                            </svg>