<svg xmlns="http://www.w3.org/2000/svg" width="40.66" height="40.66" viewBox="0 0 40.66 40.66"><defs><style>.cls-1{fill:#0f9;}.cls-1,.cls-2,.cls-3,.cls-4,.cls-5,.cls-6{fill-rule:evenodd;}.cls-2{fill:#93f;}.cls-3{fill:#fff35c;}.cls-4{opacity:0.4;}.cls-5{fill:#0cf;}.cls-6{fill:#f66;}</style></defs><g id="Layer_2" data-name="Layer 2"><g id="Layer_1-2" data-name="Layer 1"><rect width="40.66" height="40.66" rx="20.33"/><polygon class="cls-1" points="11.04 9.48 11.04 12.38 11.04 15.36 11.04 18.34 11.04 21.32 11.04 24.3 11.04 27.28 11.04 30.35 13.65 30.35 13.65 27.28 13.65 24.3 13.65 21.32 13.65 18.34 13.65 15.36 13.65 12.38 13.65 9.48 11.04 9.48"/><polygon class="cls-2" points="26.7 14.7 26.7 17.74 26.7 20.87 26.7 24 26.7 27.13 26.7 30.35 29.3 30.35 29.3 27.13 29.3 24 29.3 20.87 29.3 17.74 29.3 14.7 26.7 14.7"/><polygon class="cls-3" points="19.85 8.57 16.91 8.57 13.98 8.57 11.04 8.57 11.04 11.18 13.98 11.18 16.91 11.18 19.85 11.18 22.39 11.18 22.39 8.57 19.85 8.57"/><polygon class="cls-4" points="18.87 11.18 22.78 11.18 21.48 8.57 18.87 11.18"/><polygon class="cls-4" points="29.3 16.39 26.7 15.09 26.7 19 29.3 16.39"/><polygon class="cls-5" points="26.7 29.44 24.09 29.44 21.48 29.44 18.87 29.44 16.26 29.44 13.65 29.44 11.04 29.44 11.04 32.05 13.65 32.05 16.26 32.05 18.87 32.05 21.48 32.05 24.09 32.05 26.7 32.05 29.3 32.05 29.3 29.44 26.7 29.44"/><polygon class="cls-6" points="26.7 13.79 26.7 11.18 24.09 11.18 24.09 8.57 21.48 8.57 21.48 10.7 21.48 13.31 21.48 16.39 24.09 16.39 26.7 16.39 29.3 16.39 29.3 13.79 26.7 13.79"/></g></g></svg>