<?xml version="1.0" encoding="utf-8"?>
<!-- Generator: Adobe Illustrator 16.0.0, SVG Export Plug-In . SVG Version: 6.00 Build 0)  -->
<!DOCTYPE svg PUBLIC "-//W3C//DTD SVG 1.1//EN" "http://www.w3.org/Graphics/SVG/1.1/DTD/svg11.dtd">
<svg version="1.1" id="Layer_1" xmlns="http://www.w3.org/2000/svg" xmlns:xlink="http://www.w3.org/1999/xlink" x="0px" y="0px"
	 width="42px" height="42px" viewBox="0 0 42 42" enable-background="new 0 0 42 42" xml:space="preserve">
<path id="Rectangle_304" fill="#ECF3FE" d="M21,0L21,0c11.598,0,21,9.402,21,21l0,0c0,11.598-9.402,21-21,21l0,0
	C9.402,42,0,32.598,0,21l0,0C0,9.402,9.402,0,21,0z"/>
<g>
	<path fill="#4285F4" d="M32.536,21.263c0-0.967-0.078-1.674-0.248-2.407H21.237v4.368h6.488c-0.132,1.086-0.838,2.721-2.407,3.819
		l-0.022,0.146l3.493,2.706l0.243,0.025C31.255,27.868,32.536,24.847,32.536,21.263"/>
	<path fill="#34A853" d="M21.237,32.772c3.178,0,5.845-1.047,7.794-2.852l-3.714-2.877c-0.993,0.692-2.328,1.177-4.081,1.177
		c-3.112,0-5.754-2.054-6.696-4.891l-0.138,0.012l-3.634,2.812l-0.046,0.133C12.658,30.131,16.634,32.772,21.237,32.772"/>
	<path fill="#FBBC05" d="M14.541,23.33c-0.249-0.732-0.392-1.517-0.392-2.328c0-0.811,0.144-1.595,0.379-2.327l-0.006-0.157
		l-3.679-2.856l-0.12,0.057c-0.798,1.595-1.256,3.387-1.256,5.283c0,1.896,0.458,3.688,1.256,5.284L14.541,23.33"/>
	<path fill="#EB4335" d="M21.237,13.783c2.211,0,3.701,0.954,4.551,1.752l3.321-3.243c-2.039-1.896-4.694-3.06-7.873-3.06
		c-4.603,0-8.579,2.641-10.514,6.487l3.806,2.956C15.482,15.836,18.125,13.783,21.237,13.783"/>
</g>
</svg>
