<svg xmlns="http://www.w3.org/2000/svg" xmlns:xlink="http://www.w3.org/1999/xlink" width="38" height="35" viewBox="0 0 38 35">
                                    <defs>
                                        <clipPath id="clip-Artboard_14">
                                            <rect width="38" height="35" />
                                        </clipPath>
                                    </defs>
                                    <g id="Artboard_14" data-name="Artboard – 14" clip-path="url(#clip-Artboard_14)">
                                        <g id="noun_hashtag_3204363" transform="translate(-12 -14)">
                                            <rect id="Rectangle_442" data-name="Rectangle 442" width="17.429" height="17.429" transform="translate(17.81 22.52)" fill="#28e9fe" />
                                            <g id="Group_737" data-name="Group 737" transform="translate(12 14)">
                                                <path id="Path_712" data-name="Path 712" d="M27.14,41.4h6.706l1.2-5.4H28.341Z" transform="translate(-16.927 -21.159)" fill="#4c80fc" />
                                                <path id="Path_713" data-name="Path 713" d="M54.261,14H34.024A2.03,2.03,0,0,0,32,16.024v2.7H44.142a4.051,4.051,0,0,1,4.047,4.047V32.888h1.349l4.115,5.14a.666.666,0,0,0,.8.2.675.675,0,0,0,.391-.722l-.769-4.614h.182a2.03,2.03,0,0,0,2.024-2.024V16.024A2.03,2.03,0,0,0,54.261,14Z" transform="translate(-18.508 -14)" fill="#e2e8fc" />
                                                <path id="Path_714" data-name="Path 714" d="M37.634,23H14.7A2.7,2.7,0,0,0,12,25.7V43.237a2.7,2.7,0,0,0,2.7,2.7H21.91l-.176.816-.951,4.439a.684.684,0,0,0,.351.742.725.725,0,0,0,.31.074.662.662,0,0,0,.5-.223l5.113-5.626.2-.223H37.634a2.7,2.7,0,0,0,2.7-2.7V25.7A2.7,2.7,0,0,0,37.634,23Zm-4.722,8.769h-1.4l-1.2,5.4h1.93a.675.675,0,1,1,0,1.349H30.011l-.485,2.172a.684.684,0,0,1-.661.526,1.205,1.205,0,0,1-.148-.013.68.68,0,0,1-.513-.809l.418-1.875h-6.7l-.485,2.172a.684.684,0,0,1-.661.526,1.2,1.2,0,0,1-.148-.013.68.68,0,0,1-.513-.809l.418-1.875H19.42a.675.675,0,1,1,0-1.349h1.4l1.2-5.4h-1.93a.675.675,0,0,1,0-1.349h2.226l.485-2.172a.678.678,0,0,1,1.323.3l-.418,1.875h6.7l.485-2.172a.678.678,0,0,1,1.323.3l-.418,1.875h1.106a.675.675,0,0,1,0,1.349Z" transform="translate(-12 -16.929)" fill="#4179fc" />
                                            </g>
                                        </g>
                                    </g>
                                </svg>