<?xml version="1.0" encoding="utf-8"?>
<!-- Generator: Adobe Illustrator 16.0.0, SVG Export Plug-In . SVG Version: 6.00 Build 0)  -->
<!DOCTYPE svg PUBLIC "-//W3C//DTD SVG 1.1//EN" "http://www.w3.org/Graphics/SVG/1.1/DTD/svg11.dtd">
<svg version="1.1" id="Layer_1" xmlns="http://www.w3.org/2000/svg" xmlns:xlink="http://www.w3.org/1999/xlink" x="0px" y="0px"
	 width="42px" height="42px" viewBox="0 0 42 42" enable-background="new 0 0 42 42" xml:space="preserve">
<path id="Rectangle_303" fill="#0E76A8" d="M21,0L21,0c11.598,0,21,9.402,21,21l0,0c0,11.598-9.402,21-21,21l0,0
	C9.402,42,0,32.598,0,21l0,0C0,9.402,9.402,0,21,0z"/>
<g>
	<path fill="#FFFFFF" d="M31.072,29.288v-6.843c0-6.687-6.369-6.443-8.147-3.151v-2.226h-4.073v12.22h4.073v-5.827
		c0-3.506,4.077-3.831,4.077,0v5.827H31.072z"/>
	<path fill="#FFFFFF" d="M14.778,10.736c-1.239,0-2.24,1.015-2.24,2.259c0,1.249,1.004,2.259,2.24,2.259
		c1.237,0,2.241-1.011,2.241-2.259C17.019,11.75,16.017,10.736,14.778,10.736z"/>
	<rect x="12.742" y="17.068" fill="#FFFFFF" width="4.072" height="12.22"/>
</g>
</svg>
