<?xml version="1.0" standalone="no"?>
<!DOCTYPE svg PUBLIC "-//W3C//DTD SVG 20010904//EN"
 "http://www.w3.org/TR/2001/REC-SVG-20010904/DTD/svg10.dtd">
<svg version="1.0" xmlns="http://www.w3.org/2000/svg"
 width="429.000000pt" height="80.000000pt" viewBox="0 0 429.000000 80.000000"
 preserveAspectRatio="xMidYMid meet">

<g transform="translate(0.000000,80.000000) scale(0.100000,-0.100000)"
fill="#000000" stroke="none">
<path d="M10 685 l0 -115 115 0 c113 0 115 0 115 23 0 31 -43 118 -71 144 -30
27 -106 62 -136 63 -23 0 -23 -2 -23 -115z"/>
<path d="M322 569 l3 -234 35 3 c94 10 179 96 196 200 9 58 -18 141 -61 185
-43 45 -79 64 -134 73 l-41 7 2 -234z"/>
<path d="M878 664 c-5 -4 -8 -121 -8 -261 l0 -253 50 0 50 0 0 84 0 83 78 5
c90 5 143 27 175 72 32 45 32 157 0 202 -38 53 -83 68 -218 72 -66 2 -123 0
-127 -4z m247 -109 c34 -33 34 -93 1 -124 -19 -18 -37 -23 -87 -24 l-64 -2 -3
88 -3 87 66 0 c57 0 69 -3 90 -25z"/>
<path d="M2985 656 c-50 -22 -55 -45 -55 -286 l0 -220 50 0 50 0 0 254 c0 140
-3 257 -8 260 -4 2 -21 -1 -37 -8z"/>
<path d="M4190 579 l0 -90 -33 25 c-26 20 -46 26 -82 26 -98 0 -156 -72 -156
-195 0 -94 29 -152 94 -184 56 -28 101 -23 147 15 l30 26 0 -26 c0 -24 3 -26
45 -26 l45 0 0 260 0 260 -45 0 -45 0 0 -91z m-31 -145 c44 -56 36 -153 -16
-194 -90 -70 -178 98 -102 194 29 37 89 37 118 0z"/>
<path d="M1374 526 c-29 -13 -74 -59 -74 -76 0 -4 18 -12 40 -18 37 -9 43 -8
65 14 41 41 115 22 115 -29 0 -22 -11 -27 -87 -38 -112 -16 -158 -57 -149
-132 2 -22 15 -50 27 -63 46 -49 146 -56 184 -14 23 25 35 25 35 0 0 -17 7
-20 45 -20 l45 0 0 143 c0 163 -11 200 -70 229 -42 21 -132 23 -176 4z m146
-229 c0 -42 -17 -65 -55 -76 -47 -12 -85 5 -85 39 0 16 5 32 12 36 11 7 98 31
121 33 4 1 7 -14 7 -32z"/>
<path d="M1775 530 c-113 -46 -129 -285 -23 -350 50 -30 128 -27 167 6 l31 26
0 -42 c0 -55 -13 -76 -54 -90 -40 -13 -78 -5 -100 19 -14 16 -22 17 -56 7 -47
-12 -50 -23 -12 -58 73 -68 219 -63 282 8 36 42 42 87 38 309 l-3 170 -47 3
c-46 3 -48 2 -48 -23 l0 -27 -31 26 c-24 20 -41 26 -77 25 -26 0 -56 -4 -67
-9z m144 -89 c39 -39 40 -147 2 -185 -31 -31 -88 -27 -117 8 -20 22 -24 38
-24 87 0 50 4 64 25 84 30 31 86 34 114 6z"/>
<path d="M2202 523 c-88 -43 -127 -186 -77 -283 55 -106 214 -133 297 -50 37
38 35 54 -7 67 -32 10 -38 9 -60 -13 -35 -35 -88 -33 -126 5 -16 16 -29 39
-29 50 0 20 5 21 135 21 151 0 142 -6 124 80 -12 55 -46 103 -90 125 -37 20
-126 19 -167 -2z m127 -68 c28 -14 41 -33 41 -61 0 -11 -18 -14 -85 -14 -91 0
-99 5 -69 48 28 41 69 50 113 27z"/>
<path d="M2625 526 c-71 -31 -111 -113 -102 -208 10 -112 73 -172 182 -173 72
0 124 28 149 79 26 56 22 66 -29 66 -25 0 -45 -5 -45 -10 0 -21 -49 -60 -75
-60 -16 0 -38 12 -56 29 -25 26 -29 37 -29 86 0 68 20 110 57 122 43 14 73 4
91 -28 15 -25 23 -29 60 -29 33 0 42 4 42 18 0 28 -37 81 -72 102 -39 23 -126
26 -173 6z"/>
<path d="M3184 526 c-73 -33 -114 -135 -93 -234 31 -149 207 -202 310 -93 81
85 69 247 -23 312 -40 29 -146 37 -194 15z m145 -91 c52 -51 32 -187 -31 -209
-32 -11 -78 5 -96 35 -23 36 -25 110 -5 149 32 62 83 72 132 25z"/>
<path d="M3510 420 c0 -214 28 -270 135 -270 43 0 60 5 84 26 l31 26 0 -26 c0
-24 3 -26 45 -26 l45 0 0 195 0 195 -44 0 -44 0 -4 -136 c-3 -129 -4 -137 -27
-155 -34 -27 -75 -24 -100 7 -19 24 -21 40 -21 155 l0 129 -50 0 -50 0 0 -120z"/>
<path d="M10 240 l0 -240 115 0 115 0 0 141 c0 79 -5 159 -12 180 -23 79 -118
158 -190 159 l-28 0 0 -240z"/>
</g>
</svg>
