<svg xmlns="http://www.w3.org/2000/svg" xmlns:xlink="http://www.w3.org/1999/xlink" width="41.988" height="42" viewBox="0 0 41.988 42">
  <defs>
    <clipPath id="clip-path">
      <path id="Path_1620" data-name="Path 1620" d="M22.055-466.666h0a21,21,0,0,1,21,21h0a21.008,21.008,0,0,1-21,21h0a21,21,0,0,1-20.988-21h0A21,21,0,0,1,22.055-466.666Z" transform="translate(-1.067 466.666)"/>
    </clipPath>
  </defs>
  <g id="pinterest" transform="translate(-1.067 -0.001)">
    <rect id="Rectangle_1196" data-name="Rectangle 1196" width="24.66" height="28.17" transform="translate(9.341 6.121)" fill="#fff"/>
    <g id="g10" transform="translate(1.067 0.001)">
      <g id="g12" transform="translate(0)">
        <g id="Group_1008" data-name="Group 1008">
          <g id="g14" clip-path="url(#clip-path)">
            <g id="g20" transform="translate(-0.012 0.002)">
              <path id="path22" d="M-255.674-255.527a4.978,4.978,0,0,1-5.052-.048,4.63,4.63,0,0,1-.708-.624c-.66,2.664-1.272,5.292-3.348,7.5-.12-.5-.228-.864-.288-1.224a12.607,12.607,0,0,1,.42-4.824c.36-1.68.792-3.336,1.128-5.016a3.774,3.774,0,0,0,0-1.512,4.841,4.841,0,0,1,.372-3.36c.6-1.236,1.38-1.344,2.664-1.1.72.132,1.176,1.284.948,2.28-.312,1.344-.672,2.688-1.02,4.032a1.828,1.828,0,0,0,1.692,2.3,2.946,2.946,0,0,0,3.072-1.908,11.293,11.293,0,0,0,.984-5.916A3.434,3.434,0,0,0-256-267.2c-1.716-1.5-6.06-2.076-8.232.324-1.764,1.944-2.568,4.4-.96,6.948a1.767,1.767,0,0,1-.288,1.824.772.772,0,0,1-.612,0,3.915,3.915,0,0,1-2.232-2.676c-.9-3.564.432-7.032,4.344-8.94a9.39,9.39,0,0,1,4.2-1.092,9.394,9.394,0,0,1,6.288,2.484,6.432,6.432,0,0,1,1.992,5.1c-.06,3.276-1.176,6.012-4.176,7.7M-281.066-238.8h42v-42h-42Z" transform="translate(281.066 280.799)" fill="#cb211d"/>
            </g>
          </g>
        </g>
      </g>
    </g>
  </g>
</svg>
