<svg xmlns="http://www.w3.org/2000/svg" xmlns:xlink="http://www.w3.org/1999/xlink" width="28" height="44" viewBox="0 0 28 44">
<defs>
<clipPath id="clip-Artboard_7">
<rect width="28" height="44"></rect>
</clipPath>
</defs>
<g id="Artboard_7" data-name="Artboard – 7" clip-path="url(#clip-Artboard_7)">
<g id="noun_filter_1993898" transform="translate(-19.3 -5.8)">
<g id="Group_712" data-name="Group 712" transform="translate(19.3 5.8)">
<g id="Group_705" data-name="Group 705" transform="translate(0 18.866)">
<path id="Path_681" data-name="Path 681" d="M46.227,42.668H20.177a.866.866,0,0,1-.877-.877v-.713a.866.866,0,0,1,.877-.877h26.05a.866.866,0,0,1,.877.877v.713A.866.866,0,0,1,46.227,42.668Z" transform="translate(-19.3 -40.2)" fill="#e2e8fc"></path>
</g>
<g id="Group_706" data-name="Group 706" transform="translate(11.517 33.454)">
<path id="Path_682" data-name="Path 682" d="M40.3,66.855h0v9.433c0,.6.877.987,1.59.658l2.687-1.152a.747.747,0,0,0,.548-.658V66.8H40.3Z" transform="translate(-40.3 -66.8)" fill="#e2e8fc"></path>
</g>
<g id="Group_707" data-name="Group 707" transform="translate(2.238 23.089)">
<path id="Path_683" data-name="Path 683" d="M45.657,47.9H24.433c-.877,0-1.371.768-.823,1.261l8.446,7.568h6.033l8.446-7.568C47.028,48.613,46.534,47.9,45.657,47.9Z" transform="translate(-23.38 -47.9)" fill="#e2e8fc"></path>
</g>
 <g id="Group_711" data-name="Group 711" transform="translate(1.371)">
<g id="Group_708" data-name="Group 708" transform="translate(8.062)">
<circle id="Ellipse_160" data-name="Ellipse 160" cx="5.155" cy="5.155" r="5.155" fill="#4179fc"></circle>
</g>
<g id="Group_709" data-name="Group 709" transform="translate(0 8.61)">
<circle id="Ellipse_161" data-name="Ellipse 161" cx="2.742" cy="2.742" r="2.742" transform="translate(0 0)" fill="#28e9fe"></circle>
</g>
<g id="Group_710" data-name="Group 710" transform="translate(19.908 10.968)">
<circle id="Ellipse_162" data-name="Ellipse 162" cx="1.974" cy="1.974" r="1.974" transform="translate(0 0)" fill="#28e9fe"></circle>
</g>
</g>
</g>
</g>
</g>
</svg>