<svg xmlns="http://www.w3.org/2000/svg" width="34.33" height="32.74" viewBox="0 0 34.33 32.74">
  <g id="Group_8320" data-name="Group 8320" transform="translate(-674.121 -1468.148)">
    <g id="noun_Star_4380734_1_" data-name="noun_Star_4380734 (1)" transform="translate(675.001 1468.998)">
      <path id="Path_11026" data-name="Path 11026" d="M34.208,14.186a2.62,2.62,0,0,0-2.118-1.795L24.1,11.227,20.527,4h0a2.636,2.636,0,0,0-4.722,0L12.231,11.24,4.244,12.407a2.636,2.636,0,0,0-1.455,4.479l5.774,5.627L7.2,30.47a2.636,2.636,0,0,0,3.811,2.766l7.15-3.752,7.148,3.751a2.636,2.636,0,0,0,3.811-2.766l-1.358-7.956,5.789-5.643a2.62,2.62,0,0,0,.647-2.685Z" transform="translate(-2.007 -2.533)" fill="none" stroke="#4179ff" stroke-width="1.7"/>
    </g>
  </g>
</svg>
