<svg xmlns="http://www.w3.org/2000/svg" width="42" height="42" viewBox="0 0 42 42">
  <g id="Group_1002" data-name="Group 1002" transform="translate(7846 3523)">
    <path id="Path_1020" data-name="Path 1020" d="M21,0A21,21,0,1,1,0,21,21,21,0,0,1,21,0Z" transform="translate(-7846 -3523)" fill="#510d4e"/>
    <g id="Group_1001" data-name="Group 1001" transform="translate(-7836.126 -3513.126)">
      <path id="Path_1012" data-name="Path 1012" d="M28.092,54.036a2.366,2.366,0,1,1-2.366-2.366h2.366Z" transform="translate(-23.36 -39.811)" fill="#e01e5a"/>
      <path id="Path_1013" data-name="Path 1013" d="M37.377,53.9a2.366,2.366,0,1,1,4.728,0v5.915a2.366,2.366,0,0,1-4.728,0Z" transform="translate(-31.454 -39.674)" fill="#e01e5a"/>
      <path id="Path_1014" data-name="Path 1014" d="M39.766,28.332a2.366,2.366,0,1,1,2.366-2.366v2.366Z" transform="translate(-31.468 -23.6)" fill="#36c5f0"/>
      <path id="Path_1015" data-name="Path 1015" d="M31.817,37.617a2.366,2.366,0,1,1,0,4.728H25.9a2.366,2.366,0,0,1,0-4.728Z" transform="translate(-23.52 -31.694)" fill="#36c5f0"/>
      <path id="Path_1016" data-name="Path 1016" d="M65.44,39.976a2.366,2.366,0,1,1,2.366,2.366H65.44Z" transform="translate(-47.662 -31.691)" fill="#2eb67d"/>
      <path id="Path_1017" data-name="Path 1017" d="M56.155,32.027a2.366,2.366,0,1,1-4.728,0V26.113a2.366,2.366,0,0,1,4.728,0Z" transform="translate(-39.568 -23.742)" fill="#2eb67d"/>
      <path id="Path_1018" data-name="Path 1018" d="M53.766,65.68A2.366,2.366,0,1,1,51.4,68.046V65.68Z" transform="translate(-39.554 -47.902)" fill="#ecb22e"/>
      <path id="Path_1019" data-name="Path 1019" d="M53.629,56.395a2.366,2.366,0,1,1,0-4.728h5.915a2.366,2.366,0,0,1,0,4.728Z" transform="translate(-39.417 -39.808)" fill="#ecb22e"/>
    </g>
  </g>
</svg>
