<svg xmlns="http://www.w3.org/2000/svg" width="41" height="41" viewBox="0 0 41 41"><defs><style>.cls-1{fill:#f50;}.cls-2{fill:#fff;}</style></defs><g id="Layer_2" data-name="Layer 2"><g id="Layer_1-2" data-name="Layer 1"><path id="Rectangle_306" data-name="Rectangle 306" class="cls-1" d="M20.5,0h0A20.5,20.5,0,0,1,41,20.5h0A20.5,20.5,0,0,1,20.5,41h0A20.5,20.5,0,0,1,0,20.5H0A20.5,20.5,0,0,1,20.5,0Z"/><path class="cls-2" d="M4.62,21.81l-.24,1.77.24,1.78a.12.12,0,1,0,.24,0l.24-1.78-.24-1.77C4.86,21.57,4.62,21.57,4.62,21.81Zm1.45-1.13c0-.24-.24-.24-.24,0l-.41,2.9.33,2.82a.16.16,0,1,0,.32,0l.32-2.82Zm4.75-2.42-.24,5.32.16,3.23c0,.64.57.64.57,0l.32-3.23-.32-5.32C11.31,17.86,10.82,17.86,10.82,18.26ZM8.33,20,8,23.58l.25,3.23c0,.48.4.48.4,0L9,23.58,8.65,20A.16.16,0,1,0,8.33,20ZM14,26.81l.24-3.23L14,16.49c0-.49-.57-.49-.57,0l-.24,7.09.16,3.23C13.32,27.45,14,27.45,14,26.81Zm5.48,0,.16-3.23-.16-8.22a.4.4,0,1,0-.8,0l-.17,8.22.17,3.23C18.65,27.45,19.45,27.45,19.45,26.81Zm-2.74,0L17,23.58l-.24-7.17a.37.37,0,1,0-.73,0l-.16,7.17L16,26.81C16,27.45,16.71,27.45,16.71,26.81Zm-6.69,0,.24-3.23L10,20.28c0-.25-.49-.25-.49,0l-.24,3.3.24,3.23C9.53,27.37,10,27.37,10,26.81Zm-2.66,0,.32-3.23-.32-3.46a.16.16,0,1,0-.32,0l-.33,3.46L7,26.81C7,27.13,7.36,27.13,7.36,26.81Zm10-10.08-.17,6.85.08,3.23a.41.41,0,1,0,.81,0l.16-3.23-.16-6.85A.36.36,0,1,0,17.36,16.73ZM12.68,26.81l.24-3.23-.24-6.53c0-.48-.57-.48-.57,0l-.24,6.53L12,26.81C12,27.45,12.68,27.45,12.68,26.81Zm2.66,0,.24-3.23-.24-7.33a.33.33,0,1,0-.65,0l-.24,7.33.24,3.23C14.69,27.45,15.34,27.45,15.34,26.81Zm15.8-7.18a7,7,0,0,0-9.51-5.88c-.32.16-.4.24-.4.48V26.81a.45.45,0,0,0,.4.48h11a4,4,0,1,0-1.53-7.66ZM20,14.63l-.25,8.95L20,26.81c0,.64.8.64.8,0l.24-3.23-.24-8.95A.4.4,0,1,0,20,14.63Z"/></g></g></svg>