<svg xmlns="http://www.w3.org/2000/svg" width="38.608" height="31.6" viewBox="0 0 38.608 31.6">
  <g id="Group_8318" data-name="Group 8318" transform="translate(-1210 -1466)">
    <g id="Group_8305" data-name="Group 8305" transform="translate(1210 1466)">
      <g id="Rectangle_2780" data-name="Rectangle 2780" transform="translate(10.742)" fill="none" stroke="#4179ff" stroke-width="1.7">
        <rect width="17.147" height="31.6" rx="4" stroke="none"/>
        <rect x="0.85" y="0.85" width="15.447" height="29.9" rx="3.15" fill="none"/>
      </g>
      <g id="Group_8303" data-name="Group 8303" transform="translate(29.997 6.227)">
        <path id="Path_11021" data-name="Path 11021" d="M9300.371-1117.371h-2.093a4.3,4.3,0,0,1-3.284-1.241,3.978,3.978,0,0,1-1.012-2.778l0-10.985a4.561,4.561,0,0,1,1.83-4.009,4.02,4.02,0,0,1,1.918-.7h2.937v2.143h-2.824a1.953,1.953,0,0,0-.872.367,2.6,2.6,0,0,0-.848,2.206v11.076a1.888,1.888,0,0,0,.451,1.241,2.307,2.307,0,0,0,1.715.551h2.386a1.078,1.078,0,0,1,.771.309,1.078,1.078,0,0,1,.322.767,1.059,1.059,0,0,1-.32.76,1.065,1.065,0,0,1-.762.308h-.311Z" transform="translate(-9293.966 1137.092)" fill="#4179ff"/>
        <rect id="Rectangle_2781" data-name="Rectangle 2781" width="3.215" height="2.144" rx="0.777" transform="translate(5.395)" fill="#4179ff"/>
        <rect id="Rectangle_2782" data-name="Rectangle 2782" width="3.215" height="2.144" rx="0.777" transform="translate(5.395 17.576)" fill="#4179ff"/>
      </g>
      <g id="Group_8304" data-name="Group 8304" transform="translate(0 6.227)">
        <path id="Path_11021-2" data-name="Path 11021" d="M9295.367-1117.371h2.093a4.307,4.307,0,0,0,3.284-1.241,3.989,3.989,0,0,0,1.015-2.778v-10.985a4.547,4.547,0,0,0-1.831-4.009,4.009,4.009,0,0,0-1.918-.7h-2.938v2.143h2.827a1.953,1.953,0,0,1,.872.367,2.6,2.6,0,0,1,.846,2.206l0,11.076a1.874,1.874,0,0,1-.446,1.241,2.315,2.315,0,0,1-1.713.551h-2.389a1.081,1.081,0,0,0-.772.31,1.087,1.087,0,0,0-.321.766,1.074,1.074,0,0,0,.321.759,1.075,1.075,0,0,0,.764.309h.308Z" transform="translate(-9293.162 1137.092)" fill="#4179ff"/>
        <rect id="Rectangle_2781-2" data-name="Rectangle 2781" width="3.215" height="2.144" rx="0.777" fill="#4179ff"/>
        <rect id="Rectangle_2782-2" data-name="Rectangle 2782" width="3.215" height="2.144" rx="0.777" transform="translate(0 17.576)" fill="#4179ff"/>
      </g>
    </g>
  </g>
</svg>
