<svg width="60" height="51" viewBox="0 0 60 51" fill="none" xmlns="http://www.w3.org/2000/svg">
<path d="M16.3103 4H4V10.5172H16.3103V4Z" fill="#6E7073"/>
<path d="M16.3103 14.2402H4V20.7575H16.3103V14.2402Z" fill="#6E7073"/>
<path d="M16.3103 24.4824H4V30.9997H16.3103V24.4824Z" fill="#6E7073"/>
<path d="M35.6551 4H23.3447V10.5172H35.6551V4Z" fill="#6E7073"/>
<path d="M35.6551 14.2402H23.3447V20.7575H35.6551V14.2402Z" fill="#6E7073"/>
<path d="M35.6551 24.4824H23.3447V30.9997H35.6551V24.4824Z" fill="#6E7073"/>
<path d="M55.0003 4H42.6899V10.5172H55.0003V4Z" fill="#6E7073"/>
<path d="M55.0003 14.2402H42.6899V20.7575H55.0003V14.2402Z" fill="#6E7073"/>
<path d="M55.0003 24.4824H42.6899V30.9997H55.0003V24.4824Z" fill="#6E7073"/>
<path d="M18.1948 51.0003H41.8038L29.9998 32.1133L18.1948 51.0003ZM21.8048 49.0003L29.9998 35.8873L38.1948 49.0003H21.8048Z" fill="#323232"/>
<path d="M0 0V40H22C22.553 40 23 39.553 23 39C23 38.447 22.553 38 22 38H2V2H58V38H38C37.447 38 37 38.447 37 39C37 39.553 37.447 40 38 40H60V0H0Z" fill="#323232"/>
</svg>
