<?xml version="1.0" standalone="no"?>
<!DOCTYPE svg PUBLIC "-//W3C//DTD SVG 20010904//EN"
 "http://www.w3.org/TR/2001/REC-SVG-20010904/DTD/svg10.dtd">
<svg version="1.0" xmlns="http://www.w3.org/2000/svg"
 width="46px" height="46px" viewBox="0 0 550.000000 550.000000"
 preserveAspectRatio="xMidYMid meet">

<g transform="translate(0.000000,550.000000) scale(0.100000,-0.100000)"
fill="#000000" stroke="none">
<path d="M2540 5494 c-272 -25 -559 -92 -795 -186 -381 -152 -687 -357 -975
-654 -514 -531 -793 -1255 -766 -1989 15 -413 104 -771 287 -1142 70 -144 205
-356 313 -493 165 -209 485 -489 726 -635 660 -397 1475 -500 2210 -278 439
132 817 360 1146 687 171 171 230 243 361 439 218 326 360 701 424 1117 32
210 33 572 0 780 -92 595 -336 1093 -740 1513 -287 298 -595 503 -981 657
-311 123 -600 179 -950 185 -118 1 -235 1 -260 -1z m701 -1339 c12 -130 70
-266 155 -363 64 -73 173 -158 241 -188 60 -27 202 -64 244 -64 25 0 26 -2 33
-77 9 -107 8 -391 -2 -397 -10 -6 -220 18 -283 33 -114 26 -259 88 -341 147
l-48 34 0 -524 c0 -564 -4 -616 -54 -765 -42 -125 -101 -216 -211 -327 -115
-115 -212 -177 -353 -224 -214 -71 -426 -62 -640 28 -100 42 -176 95 -273 192
-174 173 -259 379 -259 629 0 228 69 412 217 583 116 134 275 236 440 279 58
16 112 21 213 22 l135 2 3 -245 2 -246 -70 10 c-137 19 -249 -23 -350 -130
-96 -104 -131 -238 -96 -374 31 -119 95 -201 207 -263 234 -131 533 7 588 271
8 37 11 357 11 1043 l0 989 243 -2 242 -3 6 -70z"/>
</g>
</svg>
