<?xml version="1.0" encoding="utf-8"?>
<!-- Generator: Adobe Illustrator 24.2.0, SVG Export Plug-In . SVG Version: 6.00 Build 0)  -->
<svg version="1.1" id="Layer_1" xmlns="http://www.w3.org/2000/svg" xmlns:xlink="http://www.w3.org/1999/xlink" x="0px" y="0px"
	 viewBox="0 0 45 45" style="enable-background:new 0 0 45 45;" xml:space="preserve" width="45" height="45">
<style type="text/css">
	.st0{fill:#60C196;}
	.st1{fill:#010101;}
</style>
<rect class="st0" width="45.2" height="45.2"/>
<path class="st1" d="M36.3,18.2l2.7-2.9h-6c-3-2.1-6.6-3.2-10.6-3.2c-3.9,0-7.5,1.2-10.5,3.2h-6l2.7,2.9c-1.7,1.5-2.7,3.7-2.7,6.1
	c0,4.6,3.7,8.3,8.3,8.3c2.2,0,4.1-0.8,5.6-2.2l2.6,2.9l2.6-2.9c1.5,1.4,3.4,2.2,5.6,2.2c4.6,0,8.3-3.7,8.3-8.3
	C39,21.9,37.9,19.7,36.3,18.2z M14.1,29.9c-3.1,0-5.6-2.5-5.6-5.6s2.5-5.6,5.6-5.6s5.6,2.5,5.6,5.6S17.2,29.9,14.1,29.9z M22.4,24.2
	c0-3.7-2.7-6.8-6.2-8.2c1.9-0.8,4-1.2,6.2-1.2s4.3,0.4,6.2,1.2C25.1,17.3,22.4,20.5,22.4,24.2z M30.7,29.9c-3.1,0-5.6-2.5-5.6-5.6
	s2.5-5.6,5.6-5.6s5.6,2.5,5.6,5.6S33.8,29.9,30.7,29.9z M30.7,21.4c-1.6,0-2.9,1.3-2.9,2.9c0,1.6,1.3,2.9,2.9,2.9
	c1.6,0,2.9-1.3,2.9-2.9C33.6,22.7,32.3,21.4,30.7,21.4z M17.1,24.3c0,1.6-1.3,2.9-2.9,2.9s-2.9-1.3-2.9-2.9c0-1.6,1.3-2.9,2.9-2.9
	C15.8,21.4,17.1,22.7,17.1,24.3z"/>
</svg>
