<svg xmlns="http://www.w3.org/2000/svg" width="42" height="42" viewBox="0 0 42 42">
  <g id="Group_995" data-name="Group 995" transform="translate(7715 3610)">
    <rect id="Rectangle_310" data-name="Rectangle 310" width="42" height="42" rx="21" transform="translate(-7715 -3610)" fill="#36465d"/>
    <path id="Path_971" data-name="Path 971" d="M820.444,461.62a5.91,5.91,0,0,0,.286,2.089,3.692,3.692,0,0,0,1,1.358,4.737,4.737,0,0,0,1.753.972,6.929,6.929,0,0,0,2.325.34,10.455,10.455,0,0,0,2.18-.242,10.7,10.7,0,0,0,2.23-.828v-3.087a5.277,5.277,0,0,1-2.893.972,2.913,2.913,0,0,1-1.471-.391,1.5,1.5,0,0,1-.663-.777A9.234,9.234,0,0,1,825,459.84v-5.072h4.6V451.68H825v-5h-2.757a8.548,8.548,0,0,1-.663,2.526,5.644,5.644,0,0,1-1.281,1.7,5.026,5.026,0,0,1-1.943,1.07v2.814h2.129v6.852Z" transform="translate(-8518.359 -4045.412)" fill="#fff"/>
  </g>
</svg>
