<svg xmlns="http://www.w3.org/2000/svg" width="42" height="42" viewBox="0 0 42 42">
  <g id="Group_996" data-name="Group 996" transform="translate(7800 3610)">
    <rect id="Rectangle_308" data-name="Rectangle 308" width="42" height="42" rx="21" transform="translate(-7800 -3610)" fill="#1eb8eb"/>
    <path id="Path_970" data-name="Path 970" d="M681.622,449.176c-2.721-.1-4.63,1.456-5.587,4.661a3.971,3.971,0,0,1,1.461-.34c1.029,0,1.456.581,1.307,1.7a7.156,7.156,0,0,1-1.307,2.963c-.823,1.26-1.461,1.945-1.847,1.945-.514,0-1.029-1.029-1.456-3.015-.149-.581-.437-2.084-.777-4.512-.34-2.238-1.312-3.3-2.819-3.159a6.1,6.1,0,0,0-2.912,1.8c-.921.875-1.893,1.7-2.865,2.572l.926,1.214a5.33,5.33,0,0,1,1.543-.926c.679,0,1.307,1.07,1.893,3.2q.792,2.917,1.6,5.829,1.168,3.2,2.912,3.2,2.77,0,6.8-5.247c2.572-3.349,3.93-5.973,4.028-7.912C684.631,450.534,683.659,449.222,681.622,449.176Z" transform="translate(-8453.552 -4046.879)" fill="#fff"/>
  </g>
</svg>
