<svg id="Layer_5" data-name="Layer 1" xmlns="http://www.w3.org/2000/svg" viewBox="0 0 464.52 281.36">
                                    <defs>
                                        <style>
                                            .cls-51 {
                                                fill: #1f8eed;
                                            }
                                        </style>
                                    </defs>
                                    <path class="cls-51" d="M261.74,87.32c1.11-7.87,7.38-14.83,15.31-16.16a19.06,19.06,0,0,1,20.18,9.18c3.25,5.34,2.87,11.82,2.81,17.84A37.9,37.9,0,0,1,329,106c.08-5.89-.31-11.8.22-17.69.76-8.22,7.22-15.6,15.42-17.06,8.08-1.77,17.09,2.12,21,9.5,3.19,5.44,2.64,11.93,2.62,18,5.65-.58,11.69.54,16.1,4.34,4.46,3.51,6.31,9.06,8.14,14.21,1.75-4.39,3.16-9.13,6.51-12.61a19.64,19.64,0,0,1,22.76-4.1c5.92,2.82,10.53,8.76,10.76,15.46.42,5.35-2,10.28-4,15.09Q415.27,163.95,402,196.81a22.53,22.53,0,0,1-8.69,10.91c-6.46,4.11-15.24,3.4-21.52-.71a17.38,17.38,0,0,1-7.83-16c.62-5.74,1.72-11.42,2.83-17.08-3,6.54-9.45,11.62-16.81,11.83-7.72.77-15.13-3.73-18.8-10.4-10.36,10.12-26.85,13.54-40.09,7.27-5.31,2.5-11.58,3.43-17.15,1.24-3.53-1.21-6.28-3.82-8.78-6.48-13,8.09-29.63,11-44.23,5.87a42.07,42.07,0,0,1-17.45-11.77c-9,10.15-23.2,14.33-36.44,14.31-14.7,0-29.08-8-36.37-20.88-2.15,6.84-5.15,14.12-11.63,17.92-7.79,4.7-18.8,3.87-25.42-2.54a29,29,0,0,1-5-6.87c-2,3.85-4.63,7.48-8.5,9.58-7.9,4.48-18.84,3.49-25.37-3-3.34-3.19-5.37-7.44-6.87-11.75-4.89-13.87-9.87-27.7-14.74-41.56-2.1-5.91-3.37-12.8-.3-18.62,5-9.9,19-13.19,28.16-7.24,4.26,2.56,7,7,8.5,11.62,1.53-4.09,3.66-8.15,7.29-10.76,7.51-5.63,19.18-5,25.78,1.76,2.54,2.49,4,5.76,5.27,9,1.69-5.54,5.45-10.63,10.88-12.94a20.58,20.58,0,0,1,24.17,6,41.06,41.06,0,0,1,31.42-7c10.78,1.91,20.27,8.62,26.59,17.43,6.09-8.6,15.18-15.27,25.63-17.29a41.14,41.14,0,0,1,34.83,8.86c.13-6.77-.4-13.57.33-20.3Zm10.55,4c-.06,24,0,48,0,72,0,2.67.18,5.56,1.9,7.75,2.54,3.59,8,4.2,11.61,1.93,2-1.21,2.79-3.57,3.76-5.57,7.65,10.42,24,9.4,32.91,1.2,13.39-11.77,14.4-33.32,5.15-47.89a25.35,25.35,0,0,0-20.83-12.09c-6.37-.36-12.54,2.07-17.6,5.8-.07-8.28.24-16.59-.13-24.87-.15-5-5.08-9-10-7.79-4.44.68-7,5.27-6.77,9.49ZM345,82.39c-3.88,1.61-5.42,6-5.19,10,0,24.35-.05,48.69,0,73-.27,4.63,3.08,9.47,8,9.64,5,.69,9.5-3.77,9.43-8.69.23-24,0-47.92.12-71.88,0-3.25.16-6.89-2-9.57A8.68,8.68,0,0,0,345,82.39ZM42.13,114.17c-.77,4.3,1.2,8.45,2.51,12.45,4.8,13.34,9.46,26.73,14.29,40.06,1.44,4.2,4.88,8.2,9.65,8.28a10,10,0,0,0,10.62-7.14c3.28-9.73,6.26-19.58,9.52-29.32,3,9.15,5.92,18.33,8.87,27.51,1,3.06,2.43,6.34,5.45,7.89,3.7,1.83,8.65,1.57,11.75-1.31,2.25-2.07,3.41-5,4.43-7.77,5-14.25,10.17-28.46,15.19-42.71,1.18-3.17,1.75-7-.33-9.92C130.51,106.91,121,107.7,119,114c-3.82,11.75-7.17,23.68-10.89,35.46-3.83-11.68-7.23-23.51-11.17-35.16-1.63-5.56-9.07-7.3-13.5-4-2.07,1.53-3,4.07-3.75,6.41-3.43,10.93-6.81,21.88-10.31,32.79-3.56-11.43-6.93-22.92-10.46-34.35-1.5-8.07-14.36-8.6-16.76-1Zm103.22,3.72c-11,11.29-12.61,30.24-4.07,43.4A30.08,30.08,0,0,0,159.49,174c9.41,2.28,19.53.62,28.11-3.69,3.23-1.73,6.56-3.85,8.24-7.23,2.49-4.81-2.83-11.36-8.05-9.72-4.07,1.4-7.51,4.16-11.59,5.56-6.06,2.19-13.49,1.41-18.47-2.86-2.49-2.06-3.54-5.22-4.42-8.21,12.8-.16,25.62.17,38.41-.14a6.18,6.18,0,0,0,6.11-6.06c.83-15.67-11.8-31.07-27.52-32.75a29.65,29.65,0,0,0-25,9Zm71.15-2.74c-10.77,8.51-14.89,23.77-11.23,36.81a30.42,30.42,0,0,0,15.93,19.72c10.74,5.27,23.76,4,34.28-1.21,3.43-1.82,7-4.07,8.67-7.76,2.06-4.84-3.21-11-8.32-9.32-3.62,1.29-6.74,3.64-10.29,5.08-6.15,2.7-13.9,2.17-19.25-2.05-2.72-2.06-3.91-5.37-4.87-8.52,12.74-.22,25.48.12,38.21-.15a6.2,6.2,0,0,0,6.33-6.08c.79-14.58-10-28.9-24.26-32.2a29.82,29.82,0,0,0-25.2,5.68Zm147.4-.74c-1.07,2.7-.09,5.61.91,8.17,6.22,15.32,12.36,30.67,18.55,46-2.39,6-4.86,11.92-7.26,17.89-1,2.57-2,5.47-.93,8.17,1.57,4.05,6.61,5.73,10.58,4.74,3.62-1.07,5.46-4.71,6.74-7.95,9.41-23.44,18.95-46.85,28.36-70.29,1.7-3.63.81-8.47-2.93-10.44a8.76,8.76,0,0,0-12.76,4.16c-4.46,10.92-8.64,22-13,32.94q-5.72-15.51-11.39-31c-1-2.75-2.55-5.65-5.46-6.71a8.83,8.83,0,0,0-11.39,4.36ZM158.4,126.79c-2.45,2.42-3.42,5.81-4.25,9q13.92.06,27.86,0c-.88-3.22-1.81-6.61-4.22-9-4.92-5.45-14.46-5.44-19.39,0ZM226,126.7c-2.49,2.44-3.49,5.86-4.35,9.13q13.94.09,27.86,0c-.86-3.15-1.75-6.46-4.07-8.89C240.64,121.39,231,121.29,226,126.7Zm73.93-2a12.2,12.2,0,0,0-7.66,5.61,23,23,0,0,0,.87,23.91C297,160,306.06,161,311,156.11c6.81-6.87,7.09-18.7,1.72-26.52A12,12,0,0,0,300,124.74Z" />
                                </svg>