<svg xmlns="http://www.w3.org/2000/svg" width="42" height="42" viewBox="0 0 42 42">
  <g id="workplace" transform="translate(0.996 0.996)">
    <path id="Path_1618" data-name="Path 1618" d="M20.058,40.116h0A20.065,20.065,0,0,0,40.116,20.058h0A20.065,20.065,0,0,0,20.058,0h0A20.065,20.065,0,0,0,0,20.058H0A20.065,20.065,0,0,0,20.058,40.116Z" transform="translate(-0.054 -0.054)" fill="#4767ab"/>
    <rect id="Rectangle_1195" data-name="Rectangle 1195" width="42" height="42" transform="translate(-0.996 -0.996)" fill="none"/>
    <path id="Path_1619" data-name="Path 1619" d="M45.052,33.684c-.8,5.817-3.691,5.737-3.691,5.737s-1.6.4-2.768-3.33l-.762-1.966-.8,2.086c-.2.481-1.043,4.694-3.931,2.768-.722-.481-1.083-1.765-1.845-3.57-1-2.327-1.926-4.894-1.926-4.894h2.928L34.3,35.489s.6-1.444.762-1.926c1.6-4.694,3.931-3.57,4.854-1.845a16.374,16.374,0,0,1,.883,2.247c.361,1,.722,1.926.722,1.926a7.491,7.491,0,0,0,.722-1.926,7.607,7.607,0,0,0-.562-4.653c-1.163-2.046-4.533-5.015-9.909-2.567,0,0-7.3,3.971-2.808,11.794a7.824,7.824,0,0,0,8.946,3.129v2.888a11.171,11.171,0,0,1-13-8.3A10.787,10.787,0,0,1,30.009,24.7c7.06-4.333,16.247.562,15.043,8.986" transform="translate(-14.859 -13.881)" fill="#fff"/>
  </g>
</svg>
