<svg xmlns="http://www.w3.org/2000/svg" xmlns:xlink="http://www.w3.org/1999/xlink" width="42" height="42" viewBox="0 0 42 42">
  <defs>
    <clipPath id="clip-path">
      <path id="Path_939" data-name="Path 939" d="M379.521,441.82h.047a12.537,12.537,0,0,1,12.542,12.531v.047a12.537,12.537,0,0,1-12.542,12.531h-.047A12.537,12.537,0,0,1,367,454.4v-.047a12.536,12.536,0,0,1,12.521-12.531Z" transform="translate(-367 -441.82)" fill="none"/>
    </clipPath>
  </defs>
  <g id="Group_998" data-name="Group 998" transform="translate(7975 3610)">
    <rect id="Rectangle_304" data-name="Rectangle 304" width="42" height="42" rx="21" transform="translate(-7975 -3610)" fill="#be362e"/>
    <g id="g14" transform="translate(-7967 -3601.805)">
      <g id="Group_216" data-name="Group 216" transform="translate(0 0)" clip-path="url(#clip-path)">
        <g id="g16" transform="translate(4.882 2.494)">
          <g id="g22" transform="translate(1.675 0)">
            <path id="path24" d="M385.6,455.469a.8.8,0,0,1-.619.719.751.751,0,0,1-.588-.1,1.8,1.8,0,0,1-.577-.6l-4.2-6.641a.656.656,0,0,1,.147-.919,3.385,3.385,0,0,1,.651-.389,12.264,12.264,0,0,1,3.412-.945,2.394,2.394,0,0,1,.7,0,.735.735,0,0,1,.651.793c.047.887.121,1.78.184,2.672l.126,1.927c.053.74.1,1.48.147,2.221a10.621,10.621,0,0,1,0,1.26" transform="translate(-379.491 -446.571)" fill="#fff"/>
          </g>
          <g id="g26" transform="translate(9.129 5.928)">
            <path id="path28" d="M393.69,462.3a1.884,1.884,0,0,1,.184-.42c.9-1.228,1.806-2.446,2.7-3.675a.751.751,0,0,1,1.144-.142,4.767,4.767,0,0,1,.924,1,8.06,8.06,0,0,1,1.076,1.853,1.691,1.691,0,0,1,.1.362.7.7,0,0,1-.525.861c-.525.147-1.092.284-1.638.42-.9.226-1.811.436-2.714.667a.95.95,0,0,1-1.218-.914H393.7" transform="translate(-393.69 -457.864)" fill="#fff"/>
          </g>
          <g id="g30" transform="translate(0 9.32)">
            <path id="path32" d="M376.316,467.613a9.8,9.8,0,0,1,.21-2.415,2.1,2.1,0,0,1,.215-.525.646.646,0,0,1,.824-.3c.766.294,1.533.6,2.3.913.667.268,1.323.551,1.99.814a.94.94,0,0,1,.326,1.459.871.871,0,0,1-.331.221l-3.675,1.171-.7.21a.746.746,0,0,1-1.013-.6c-.073-.31-.11-.625-.163-.94" transform="translate(-376.3 -464.324)" fill="#fff"/>
          </g>
          <g id="g34" transform="translate(9.397 13.003)">
            <path id="path36" d="M395.108,471.34a.388.388,0,0,1,.2.042l4.268,1.417.074.026a.751.751,0,0,1,.467,1.087,6.2,6.2,0,0,1-.861,1.417,6.828,6.828,0,0,1-1.318,1.381,1.388,1.388,0,0,1-.367.2.646.646,0,0,1-.814-.268c-.221-.326-.436-.661-.646-1-.6-.961-1.181-1.932-1.79-2.887a.95.95,0,0,1,.6-1.4h.184" transform="translate(-394.199 -471.34)" fill="#fff"/>
          </g>
          <g id="g38" transform="translate(3.063 13.929)">
            <path id="path40" d="M386.836,475.327v3.3a.719.719,0,0,1-.74.672,4.378,4.378,0,0,1-1.3-.231,7.654,7.654,0,0,1-2.168-.966,1.382,1.382,0,0,1-.362-.357.6.6,0,0,1,0-.756q.525-.63,1.024-1.244l1.958-2.31a.934.934,0,0,1,1.575.247.973.973,0,0,1,.042.247v1.4h0" transform="translate(-382.134 -473.103)" fill="#fff"/>
          </g>
        </g>
      </g>
    </g>
  </g>
</svg>
